PathFileType	4	(X/Y/Z)	c:/Users/goper/Files/vsCode/490R/osim_files/C08/C08_Fast_02.trc
DataRate	CameraRate	NumFrames	NumMarkers	Units                	OrigDataRate	OrigDataStartFrame	OrigNumFrames
250.00	250.00	4	36	mm	250.0	1602	2135
                Frame#	Time	LPSIS			LASIS			LTH1			LTH2			LTH3			LTH4			LLFE			LMFE			LSH1			LSH2			LSH3			LSH4			LLMAL			LMMAL			LCAL			LMTP5			LTOE			LMTP1			RPSIS			RASIS			RTH1			RTH2			RTH3			RTH4			RLFE			RMFE			RSH1			RSH2			RSH3			RSH4			RLMAL			RMMAL			RCAL			RMTP1			RTOE			RMTP5		
		X1	Y1	Z1	X2	Y2	Z2	X3	Y3	Z3	X4	Y4	Z4	X5	Y5	Z5	X6	Y6	Z6	X7	Y7	Z7	X8	Y8	Z8	X9	Y9	Z9	X10	Y10	Z10	X11	Y11	Z11	X12	Y12	Z12	X13	Y13	Z13	X14	Y14	Z14	X15	Y15	Z15	X16	Y16	Z16	X17	Y17	Z17	X18	Y18	Z18	X19	Y19	Z19	X20	Y20	Z20	X21	Y21	Z21	X22	Y22	Z22	X23	Y23	Z23	X24	Y24	Z24	X25	Y25	Z25	X26	Y26	Z26	X27	Y27	Z27	X28	Y28	Z28	X29	Y29	Z29	X30	Y30	Z30	X31	Y31	Z31	X32	Y32	Z32	X33	Y33	Z33	X34	Y34	Z34	X35	Y35	Z35	X36	Y36	Z36

1602	6.40400	-3526.48828	1031.45923	216.01773	-3739.08838	991.14423	308.66391	-3587.74634	721.17255	363.10855	-3572.38843	649.70374	345.86517	-3551.47705	577.51465	330.32761	0.00000	0.00000	0.00000	-3536.68213	529.90729	320.27341	-3545.87500	523.69891	193.29590	-3438.78638	432.67209	327.59015	0.00000	0.00000	0.00000	-3494.09595	409.27792	324.18378	-3476.68872	369.78973	323.59888	-3328.26831	127.33765	255.31660	-3353.95410	137.88956	171.56841	-3256.91064	122.30376	203.21407	-3426.49316	43.00799	273.19409	-3406.55420	0.01441	209.78847	0.00000	0.00000	0.00000	-3528.20215	1026.12952	156.87494	-3734.21509	999.51349	70.26482	-3736.11060	736.78577	3.83980	0.00000	0.00000	0.00000	-3794.58984	589.12122	32.68590	-3833.49414	694.33575	43.81131	-3827.33691	530.39496	46.23700	-3826.12305	521.72943	170.05826	-3800.10156	438.32697	23.92042	-3813.04150	394.78619	16.76626	-3855.97900	453.50439	36.20206	-3865.95020	410.15454	28.72776	-3923.11108	112.84705	150.89302	0.00000	0.00000	0.00000	0.00000	0.00000	0.00000	0.00000	0.00000	0.00000	-3436.71069	408.06833	361.00970	0.00000	0.00000	0.00000
1603	6.40800	-3532.10278	1031.13354	215.64465	-3744.48975	990.82642	308.65250	-3592.84668	720.76080	362.93271	-3577.72070	649.24530	345.80090	-3557.16016	577.09949	329.09106	0.00000	0.00000	0.00000	-3542.14160	529.39838	320.19513	-3551.84155	523.05042	193.25737	-3443.50537	433.06998	327.49887	0.00000	0.00000	0.00000	-3498.57886	409.02704	324.14432	-3480.82153	369.80527	323.62473	-3329.87793	128.91922	255.51770	-3355.59180	139.20108	171.88203	-3259.07837	124.72234	204.37665	-3426.74854	43.13995	273.33444	-3406.82886	0.05066	209.80763	0.00000	0.00000	0.00000	-3533.67993	1025.81274	156.62117	-3740.22900	999.54724	70.12440	-3742.23730	736.69464	4.48902	0.00000	0.00000	0.00000	-3800.38403	588.98199	33.77352	-3839.33228	694.07959	44.99350	-3832.93164	530.07410	46.92286	-3830.22363	521.01825	170.47389	-3805.03296	437.96872	24.26028	-3817.60181	394.44046	17.23723	-3860.94263	452.82010	36.98622	-3870.68848	409.40659	29.53918	0.00000	0.00000	0.00000	-3457.63379	413.47192	350.35370	0.00000	0.00000	0.00000	0.00000	0.00000	0.00000	0.00000	0.00000	0.00000	-3228.13257	328.32150	-45.31319
1604	6.41200	-3537.58936	1030.81531	215.32994	-3749.92432	990.52344	308.69968	-3597.99463	720.40607	362.76480	-3583.15649	648.79840	345.72842	-3562.70972	576.58301	328.94675	0.00000	0.00000	0.00000	-3547.69678	528.84747	320.08771	-3558.08203	522.38086	193.21999	-3448.44604	433.48044	327.39694	0.00000	0.00000	0.00000	-3505.42993	409.50504	326.42133	-3485.01733	369.87271	323.69116	-3331.52637	130.59990	255.70662	-3357.37280	140.55272	172.22276	-3261.55396	127.16093	205.29352	-3427.18604	43.16290	273.55585	-3407.13892	0.10610	209.86049	0.00000	0.00000	0.00000	-3538.34302	1025.80676	155.04347	-3746.28979	999.66211	70.06807	-3748.29370	736.65643	5.18939	0.00000	0.00000	0.00000	-3805.89697	588.78479	34.80481	-3845.02808	693.70746	46.33173	-3838.12671	529.66711	47.41314	-3834.04028	520.11566	170.77759	-3809.71021	437.44119	24.52930	-3827.17603	392.90897	14.56435	-3865.67896	452.13031	37.50927	-3875.29761	408.69168	30.14948	0.00000	0.00000	0.00000	0.00000	0.00000	0.00000	-3463.61987	414.20126	351.14438	0.00000	0.00000	0.00000	-3235.43140	328.57028	-44.16118	0.00000	0.00000	0.00000
1605	6.41600	-3542.85938	1030.68689	214.90208	-3755.33643	990.22638	308.76407	-3603.24561	720.12476	362.60519	-3588.70898	648.38177	345.68958	0.00000	0.00000	0.00000	0.00000	0.00000	0.00000	-3553.53247	528.39258	319.99893	-3564.42358	521.65131	193.26767	-3453.59937	433.96701	327.27792	0.00000	0.00000	0.00000	-3507.98999	408.49042	324.26294	-3489.19995	369.80911	323.70914	-3333.34326	132.28185	255.99725	-3359.24829	141.96619	172.58853	-3261.89502	130.38266	204.14297	-3427.58838	43.22831	273.72925	-3407.52734	0.21110	209.90117	0.00000	0.00000	0.00000	-3545.01465	1025.30042	155.78392	-3752.41406	999.85083	70.06381	-3754.22534	736.59326	5.92909	0.00000	0.00000	0.00000	-3811.31274	588.56049	35.66417	-3850.58691	693.23529	47.75222	-3843.01929	529.19904	47.62971	-3837.57959	518.99365	171.05487	-3814.27466	436.96344	24.73080	-3831.66040	392.43842	14.80713	-3870.25220	451.54474	37.87521	-3879.78833	408.03989	30.55812	-3931.85449	109.69442	151.32704	-3840.50879	75.24930	126.70727	0.00000	0.00000	0.00000	0.00000	0.00000	0.00000	0.00000	0.00000	0.00000	-4044.43018	68.17740	38.95758
